<svg width="40" height="31" viewBox="0 0 40 31" fill="none" xmlns="http://www.w3.org/2000/svg">
<path id="Vector 1" d="M0.579683 13.9789C-0.201366 14.7599 -0.201366 16.0262 0.579683 16.8073L13.3076 29.5352C14.0887 30.3163 15.355 30.3163 16.136 29.5352C16.9171 28.7542 16.9171 27.4878 16.136 26.7068L4.82232 15.3931L16.136 4.07936C16.9171 3.29831 16.9171 2.03198 16.136 1.25093C15.355 0.469882 14.0887 0.469882 13.3076 1.25093L0.579683 13.9789ZM37.9939 17.3931C39.0985 17.3931 39.9939 16.4976 39.9939 15.3931C39.9939 14.2885 39.0985 13.3931 37.9939 13.3931V17.3931ZM1.9939 17.3931H37.9939V13.3931H1.9939V17.3931Z" fill="white"/>
</svg>
